# xmcd
#
# Track frame offsets:
# 150
# 16522
# 32525
# 53227
# 71287
# 85525
# 101527
# 119482
# 142255
# 158422
# 172367
# 190097
#
# Disc length: 2772 seconds
#
#
# Revision: 8
# Processed by: cddbd v1.5.2PL0 Copyright (c) Steve Scherf et al.
# Submitted via: FreeRIP 2.96 
#
DISCID=930ad20c
DTITLE=Christina Aguilera - Christina Aguilera
DYEAR=1999
DGENRE=Pop
TTITLE0=Genie In A Bottle
TTITLE1=What A Girl Wants
TTITLE2=I Turn To You
TTITLE3=So Emotional
TTITLE4=Come On Over (All I Want Is You)
TTITLE5=Reflection
TTITLE6=Love For All Seasons
TTITLE7=Somebody's Somebody
TTITLE8=When You Put Your Hands On Me
TTITLE9=Blessed
TTITLE10=Love Will Find A Way
TTITLE11=Obvious
EXTD=YEAR: 2001 ID3G:  13
EXTT0=
EXTT1=
EXTT2=
EXTT3=
EXTT4=
EXTT5=
EXTT6=
EXTT7=
EXTT8=
EXTT9=
EXTT10=
EXTT11=
PLAYORDER=
